<svg width="32" height="32" viewBox="0 0 32 32" fill="none" xmlns="http://www.w3.org/2000/svg">
<path d="M5.67497 22.125C4.18608 19.613 3.66528 16.6439 4.21035 13.7752C4.75543 10.9064 6.32888 8.33528 8.63532 6.54441C10.9418 4.75355 13.8226 3.86614 16.7369 4.04878C19.6513 4.23143 22.3988 5.47156 24.4636 7.53637C26.5284 9.60118 27.7685 12.3487 27.9512 15.263C28.1338 18.1774 27.2464 21.0582 25.4556 23.3647C23.6647 25.6711 21.0935 27.2446 18.2248 27.7896C15.356 28.3347 12.387 27.8139 9.87497 26.325V26.325L5.72497 27.5C5.55494 27.5497 5.37467 27.5528 5.20304 27.5089C5.03142 27.465 4.87476 27.3757 4.7495 27.2505C4.62423 27.1252 4.53497 26.9686 4.49107 26.7969C4.44717 26.6253 4.45024 26.445 4.49997 26.275L5.67497 22.125Z" stroke="black" stroke-linecap="round" stroke-linejoin="round"/>
<path d="M16 17C16.5523 17 17 16.5523 17 16C17 15.4477 16.5523 15 16 15C15.4477 15 15 15.4477 15 16C15 16.5523 15.4477 17 16 17Z" fill="black"/>
<path d="M10 17C10.5523 17 11 16.5523 11 16C11 15.4477 10.5523 15 10 15C9.44772 15 9 15.4477 9 16C9 16.5523 9.44772 17 10 17Z" fill="black"/>
<path d="M22 17C22.5523 17 23 16.5523 23 16C23 15.4477 22.5523 15 22 15C21.4477 15 21 15.4477 21 16C21 16.5523 21.4477 17 22 17Z" fill="black"/>
</svg>
