<svg width="32" height="32" viewBox="0 0 32 32" fill="none" xmlns="http://www.w3.org/2000/svg">
<path d="M13.325 19.0125L12.2375 20.2375C11.3997 21.0738 10.3328 21.643 9.17165 21.8732C8.01048 22.1034 6.80713 21.9842 5.71366 21.5307C4.6202 21.0772 3.6857 20.3098 3.02825 19.3253C2.37079 18.3409 2.0199 17.1837 2.0199 16C2.0199 14.8162 2.37079 13.659 3.02825 12.6746C3.6857 11.6902 4.6202 10.9227 5.71366 10.4692C6.80713 10.0157 8.01048 9.89656 9.17165 10.1267C10.3328 10.3569 11.3997 10.9261 12.2375 11.7625L19.7625 20.2375C20.6003 21.0738 21.6672 21.643 22.8283 21.8732C23.9895 22.1034 25.1929 21.9842 26.2863 21.5307C27.3798 21.0772 28.3143 20.3098 28.9718 19.3253C29.6292 18.3409 29.9801 17.1837 29.9801 16C29.9801 14.8162 29.6292 13.659 28.9718 12.6746C28.3143 11.6902 27.3798 10.9227 26.2863 10.4692C25.1929 10.0157 23.9895 9.89656 22.8283 10.1267C21.6672 10.3569 20.6003 10.9261 19.7625 11.7625L18.675 12.9875" stroke="black" stroke-linecap="round" stroke-linejoin="round"/>
</svg>
