<svg width="32" height="32" viewBox="0 0 32 32" fill="none" xmlns="http://www.w3.org/2000/svg">
<path d="M5.675 22.125C4.18611 19.613 3.66531 16.6439 4.21039 13.7752C4.75546 10.9064 6.32891 8.33525 8.63535 6.54438C10.9418 4.75352 13.8226 3.86611 16.737 4.04875C19.6513 4.2314 22.3988 5.47153 24.4636 7.53634C26.5284 9.60115 27.7686 12.3486 27.9512 15.263C28.1339 18.1774 27.2465 21.0582 25.4556 23.3646C23.6647 25.6711 21.0936 27.2445 18.2248 27.7896C15.3561 28.3347 12.387 27.8139 9.875 26.325V26.325L5.725 27.5C5.55497 27.5497 5.3747 27.5528 5.20307 27.5089C5.03145 27.465 4.87479 27.3757 4.74953 27.2504C4.62426 27.1252 4.535 26.9685 4.4911 26.7969C4.4472 26.6253 4.45027 26.445 4.5 26.275L5.675 22.125Z" stroke="black" stroke-linecap="round" stroke-linejoin="round"/>
<path d="M10 18L14 14L18 18L22 14" stroke="black" stroke-linecap="round" stroke-linejoin="round"/>
</svg>
